{
  "accessors": [
    {
      "bufferView": 2,
      "componentType": 5126,
      "count": 23958,
      "max": [
        0.29260000586509705,
        1.0145000219345093,
        0.1776999980211258
      ],
      "min": [
        -0.6401000022888184,
        -0.656000018119812,
        -0.1835000067949295
      ],
      "type": "VEC3"
    },
    {
      "bufferView": 2,
      "byteOffset": 287496,
      "componentType": 5126,
      "count": 23958,
      "max": [
        0.999987006187439,
        1.0,
        0.9999949932098389
      ],
      "min": [
        -0.999966025352478,
        -0.9993367791175842,
        -0.9999500513076782
      ],
      "type": "VEC3"
    },
    {
      "bufferView": 1,
      "componentType": 5126,
      "count": 23958,
      "max": [
        0.9959999918937683,
        0.9959999918937683
      ],
      "min": [
        -0.9959999918937683,
        0.004000000189989805
      ],
      "type": "VEC2"
    },
    {
      "bufferView": 0,
      "componentType": 5125,
      "count": 62580,
      "type": "SCALAR"
    },
    {
      "bufferView": 2,
      "byteOffset": 574992,
      "componentType": 5126,
      "count": 4875,
      "max": [
        0.73580002784729,
        0.031599998474121094,
        0.15549999475479126
      ],
      "min": [
        -0.7312999963760376,
        -0.6786999702453613,
        -0.13860000669956207
      ],
      "type": "VEC3"
    },
    {
      "bufferView": 2,
      "byteOffset": 633492,
      "componentType": 5126,
      "count": 4875,
      "max": [
        0.9992453455924988,
        0.9997475743293762,
        0.9996032118797302
      ],
      "min": [
        -0.9968191385269165,
        -0.986466646194458,
        -0.9997400641441345
      ],
      "type": "VEC3"
    },
    {
      "bufferView": 1,
      "byteOffset": 191664,
      "componentType": 5126,
      "count": 4875,
      "max": [
        0.9449999928474426,
        0.9959999918937683
      ],
      "min": [
        0.1550000011920929,
        0.06400000303983688
      ],
      "type": "VEC2"
    },
    {
      "bufferView": 0,
      "byteOffset": 250320,
      "componentType": 5125,
      "count": 20577,
      "type": "SCALAR"
    },
    {
      "bufferView": 2,
      "byteOffset": 691992,
      "componentType": 5126,
      "count": 465,
      "max": [
        0.04560000076889992,
        -0.7926999926567078,
        -0.09200000017881393
      ],
      "min": [
        -0.04859999939799309,
        -0.8198000192642212,
        -0.11079999804496765
      ],
      "type": "VEC3"
    },
    {
      "bufferView": 2,
      "byteOffset": 697572,
      "componentType": 5126,
      "count": 465,
      "max": [
        0.9999990463256836,
        1.0,
        0.3340432643890381
      ],
      "min": [
        -1.0,
        -0.9999995231628418,
        -0.9964579343795776
      ],
      "type": "VEC3"
    },
    {
      "bufferView": 1,
      "byteOffset": 230664,
      "componentType": 5126,
      "count": 465,
      "max": [
        0.9990000128746033,
        1.9989999532699585
      ],
      "min": [
        0.0010000000474974513,
        1.0
      ],
      "type": "VEC2"
    },
    {
      "bufferView": 0,
      "byteOffset": 332628,
      "componentType": 5125,
      "count": 2655,
      "type": "SCALAR"
    },
    {
      "bufferView": 2,
      "byteOffset": 703152,
      "componentType": 5126,
      "count": 10813,
      "max": [
        0.16300000250339508,
        -0.6133000254631042,
        0.1535000056028366
      ],
      "min": [
        -0.1632000058889389,
        -0.95169997215271,
        -0.16060000658035278
      ],
      "type": "VEC3"
    },
    {
      "bufferView": 2,
      "byteOffset": 832908,
      "componentType": 5126,
      "count": 10813,
      "max": [
        0.9999995231628418,
        0.9940890073776245,
        0.9999675750732422
      ],
      "min": [
        -0.9996277093887329,
        -0.9999550580978394,
        -0.9995074272155762
      ],
      "type": "VEC3"
    },
    {
      "bufferView": 1,
      "byteOffset": 234384,
      "componentType": 5126,
      "count": 10813,
      "max": [
        1.0,
        2.015000104904175
      ],
      "min": [
        -0.006000000052154064,
        1.0099999904632568
      ],
      "type": "VEC2"
    },
    {
      "bufferView": 0,
      "byteOffset": 343248,
      "componentType": 5125,
      "count": 30840,
      "type": "SCALAR"
    },
    {
      "bufferView": 2,
      "byteOffset": 962664,
      "componentType": 5126,
      "count": 4435,
      "max": [
        0.09860000014305115,
        -0.6128000020980835,
        0.09210000187158585
      ],
      "min": [
        -0.1006999984383583,
        -0.928600013256073,
        -0.15379999577999115
      ],
      "type": "VEC3"
    },
    {
      "bufferView": 2,
      "byteOffset": 1015884,
      "componentType": 5126,
      "count": 4435,
      "max": [
        0.9998940229415894,
        0.9996176958084106,
        0.9982526302337646
      ],
      "min": [
        -0.9996381998062134,
        -0.9993188381195068,
        -0.9997475743293762
      ],
      "type": "VEC3"
    },
    {
      "bufferView": 1,
      "byteOffset": 320888,
      "componentType": 5126,
      "count": 4435,
      "max": [
        0.9950000047683716,
        1.9730000495910645
      ],
      "min": [
        0.004999999888241291,
        1.0049999952316284
      ],
      "type": "VEC2"
    },
    {
      "bufferView": 0,
      "byteOffset": 466608,
      "componentType": 5125,
      "count": 25653,
      "type": "SCALAR"
    },
    {
      "bufferView": 2,
      "byteOffset": 1069104,
      "componentType": 5126,
      "count": 1290,
      "max": [
        0.09960000216960907,
        -0.5516999959945679,
        0.41269999742507935
      ],
      "min": [
        -0.09740000218153,
        -0.8741000294685364,
        -0.1404999941587448
      ],
      "type": "VEC3"
    },
    {
      "bufferView": 2,
      "byteOffset": 1084584,
      "componentType": 5126,
      "count": 1290,
      "max": [
        0.9999350309371948,
        0.9983324408531189,
        0.9994613528251648
      ],
      "min": [
        -0.999606192111969,
        -0.9993823170661926,
        -0.9998675584793091
      ],
      "type": "VEC3"
    },
    {
      "bufferView": 1,
      "byteOffset": 356368,
      "componentType": 5126,
      "count": 1290,
      "max": [
        0.9959999918937683,
        1.996000051498413
      ],
      "min": [
        0.004000000189989805,
        1.0870000123977661
      ],
      "type": "VEC2"
    },
    {
      "bufferView": 0,
      "byteOffset": 569220,
      "componentType": 5125,
      "count": 5556,
      "type": "SCALAR"
    }
  ],
  "asset": {
    "extras": {
      "author": "Tremolo_1404_ (https://sketchfab.com/Tremolo_1404_)",
      "license": "CC-BY-4.0 (http://creativecommons.org/licenses/by/4.0/)",
      "source": "https://sketchfab.com/3d-models/john-rambo-d82a5f6418f24667971389705cac054a",
      "title": "John Rambo"
    },
    "generator": "Sketchfab-13.82.0",
    "version": "2.0"
  },
  "bufferViews": [
    {
      "buffer": 0,
      "byteLength": 591444,
      "name": "floatBufferViews",
      "target": 34963
    },
    {
      "buffer": 0,
      "byteLength": 366688,
      "byteOffset": 591444,
      "byteStride": 8,
      "name": "floatBufferViews",
      "target": 34962
    },
    {
      "buffer": 0,
      "byteLength": 1100064,
      "byteOffset": 958132,
      "byteStride": 12,
      "name": "floatBufferViews",
      "target": 34962
    }
  ],
  "buffers": [
    {
      "byteLength": 2058196,
      "uri": "scene.bin"
    }
  ],
  "images": [
    {
      "uri": "textures/Material0_baseColor.png"
    },
    {
      "uri": "textures/Material0_metallicRoughness.png"
    },
    {
      "uri": "textures/Material2_baseColor.png"
    },
    {
      "uri": "textures/Material2_metallicRoughness.png"
    },
    {
      "uri": "textures/Material3_baseColor.png"
    },
    {
      "uri": "textures/Material3_metallicRoughness.png"
    },
    {
      "uri": "textures/Material4_baseColor.png"
    },
    {
      "uri": "textures/Material4_metallicRoughness.png"
    },
    {
      "uri": "textures/Material5_baseColor.png"
    },
    {
      "uri": "textures/Material5_metallicRoughness.png"
    }
  ],
  "materials": [
    {
      "doubleSided": true,
      "name": "Material0",
      "pbrMetallicRoughness": {
        "baseColorTexture": {
          "index": 0
        },
        "metallicRoughnessTexture": {
          "index": 1
        },
        "roughnessFactor": 0.5770514946237744
      }
    },
    {
      "doubleSided": true,
      "name": "Material1",
      "pbrMetallicRoughness": {
        "baseColorTexture": {
          "index": 0
        },
        "metallicRoughnessTexture": {
          "index": 1
        },
        "roughnessFactor": 0.5770514946237744
      }
    },
    {
      "doubleSided": true,
      "name": "Material2",
      "pbrMetallicRoughness": {
        "baseColorTexture": {
          "index": 2
        },
        "metallicRoughnessTexture": {
          "index": 3
        },
        "roughnessFactor": 0.5770514946237744
      }
    },
    {
      "doubleSided": true,
      "name": "Material3",
      "pbrMetallicRoughness": {
        "baseColorTexture": {
          "index": 4
        },
        "metallicRoughnessTexture": {
          "index": 5
        },
        "roughnessFactor": 0.5770514946237744
      }
    },
    {
      "doubleSided": true,
      "name": "Material4",
      "pbrMetallicRoughness": {
        "baseColorTexture": {
          "index": 6
        },
        "metallicRoughnessTexture": {
          "index": 7
        },
        "roughnessFactor": 0.5770514946237744
      }
    },
    {
      "doubleSided": true,
      "name": "Material5",
      "pbrMetallicRoughness": {
        "baseColorTexture": {
          "index": 8
        },
        "metallicRoughnessTexture": {
          "index": 9
        },
        "roughnessFactor": 0.5770514946237744
      }
    }
  ],
  "meshes": [
    {
      "name": "Object_0",
      "primitives": [
        {
          "attributes": {
            "NORMAL": 1,
            "POSITION": 0,
            "TEXCOORD_0": 2
          },
          "indices": 3,
          "material": 0,
          "mode": 4
        }
      ]
    },
    {
      "name": "Object_1",
      "primitives": [
        {
          "attributes": {
            "NORMAL": 5,
            "POSITION": 4,
            "TEXCOORD_0": 6
          },
          "indices": 7,
          "material": 1,
          "mode": 4
        }
      ]
    },
    {
      "name": "Object_2",
      "primitives": [
        {
          "attributes": {
            "NORMAL": 9,
            "POSITION": 8,
            "TEXCOORD_0": 10
          },
          "indices": 11,
          "material": 2,
          "mode": 4
        }
      ]
    },
    {
      "name": "Object_3",
      "primitives": [
        {
          "attributes": {
            "NORMAL": 13,
            "POSITION": 12,
            "TEXCOORD_0": 14
          },
          "indices": 15,
          "material": 3,
          "mode": 4
        }
      ]
    },
    {
      "name": "Object_4",
      "primitives": [
        {
          "attributes": {
            "NORMAL": 17,
            "POSITION": 16,
            "TEXCOORD_0": 18
          },
          "indices": 19,
          "material": 4,
          "mode": 4
        }
      ]
    },
    {
      "name": "Object_5",
      "primitives": [
        {
          "attributes": {
            "NORMAL": 21,
            "POSITION": 20,
            "TEXCOORD_0": 22
          },
          "indices": 23,
          "material": 5,
          "mode": 4
        }
      ]
    }
  ],
  "nodes": [
    {
      "children": [
        1
      ],
      "matrix": [
        -8.881784197001252e-16,
        0.0,
        -1.0,
        0.0,
        -0.021644776687026024,
        -0.9997657537460327,
        6.661858278920113e-16,
        0.0,
        -0.9997657537460327,
        0.021644776687026024,
        3.378730132757082e-16,
        0.0,
        0.0,
        0.0,
        0.0,
        1.0
      ],
      "name": "Sketchfab_model"
    },
    {
      "children": [
        2,
        3,
        4,
        5,
        6,
        7
      ],
      "name": "John Rambo.obj.cleaner.materialmerger.gles"
    },
    {
      "mesh": 0,
      "name": "Object_2"
    },
    {
      "mesh": 1,
      "name": "Object_3"
    },
    {
      "mesh": 2,
      "name": "Object_4"
    },
    {
      "mesh": 3,
      "name": "Object_5"
    },
    {
      "mesh": 4,
      "name": "Object_6"
    },
    {
      "mesh": 5,
      "name": "Object_7"
    }
  ],
  "samplers": [
    {
      "magFilter": 9729,
      "minFilter": 9987,
      "wrapS": 10497,
      "wrapT": 10497
    }
  ],
  "scene": 0,
  "scenes": [
    {
      "name": "Sketchfab_Scene",
      "nodes": [
        0
      ]
    }
  ],
  "textures": [
    {
      "sampler": 0,
      "source": 0
    },
    {
      "sampler": 0,
      "source": 1
    },
    {
      "sampler": 0,
      "source": 2
    },
    {
      "sampler": 0,
      "source": 3
    },
    {
      "sampler": 0,
      "source": 4
    },
    {
      "sampler": 0,
      "source": 5
    },
    {
      "sampler": 0,
      "source": 6
    },
    {
      "sampler": 0,
      "source": 7
    },
    {
      "sampler": 0,
      "source": 8
    },
    {
      "sampler": 0,
      "source": 9
    }
  ]
}
